<?xml version="1.0" encoding="UTF-8"?>
<svg id="Layer_1" data-name="Layer 1" xmlns="http://www.w3.org/2000/svg" xmlns:xlink="http://www.w3.org/1999/xlink" viewBox="0 0 644.058 137.44" role="img" aria-label="MigSmartCard">
  <defs>
    <style>
      .cls-1 { fill: url(#linear-gradient); }
      .cls-1, .cls-2, .cls-3, .cls-4, .cls-5, .cls-6, .cls-7, .cls-8, .cls-9, .cls-10, .cls-11 { stroke-width: 0px; }
      .cls-2 { fill: url(#linear-gradient-10); }
      .cls-3 { fill: url(#linear-gradient-4); }
      .cls-4 { fill: url(#linear-gradient-2); }
      .cls-5 { fill: url(#linear-gradient-3); }
      .cls-6 { fill: url(#linear-gradient-8); }
      .cls-7 { fill: url(#linear-gradient-9); }
      .cls-8 { fill: url(#linear-gradient-7); }
      .cls-9 { fill: url(#linear-gradient-5); }
      .cls-10 { fill: url(#linear-gradient-6); }
      .cls-11 { fill: #fff; }
    </style>
    <linearGradient id="linear-gradient" x1="52.39" y1="32.998" x2="52.39" y2="64.76" gradientUnits="userSpaceOnUse">
      <stop offset="0" stop-color="#2d76f9"/>
      <stop offset=".998" stop-color="#1954e7"/>
    </linearGradient>
    <linearGradient id="linear-gradient-2" x1="185.966" y1="6.103" x2="186.924" y2="68.408" gradientUnits="userSpaceOnUse">
      <stop offset="0" stop-color="#2d88f9"/>
      <stop offset=".998" stop-color="#1954e7"/>
    </linearGradient>
    <linearGradient id="linear-gradient-3" x1="254.536" y1="5.048" x2="255.495" y2="67.353" xlink:href="#linear-gradient"/>
    <linearGradient id="linear-gradient-4" x1="323.657" y1="3.985" x2="324.615" y2="66.289" xlink:href="#linear-gradient"/>
    <linearGradient id="linear-gradient-5" x1="373.891" y1="3.212" x2="374.85" y2="65.516" xlink:href="#linear-gradient"/>
    <linearGradient id="linear-gradient-6" x1="408.592" y1="2.678" x2="409.551" y2="64.983" xlink:href="#linear-gradient"/>
    <linearGradient id="linear-gradient-7" x1="462.795" y1="1.844" x2="463.754" y2="64.149" xlink:href="#linear-gradient"/>
    <linearGradient id="linear-gradient-8" x1="524.718" y1=".892" x2="525.677" y2="63.196" xlink:href="#linear-gradient"/>
    <linearGradient id="linear-gradient-9" x1="574.953" y1=".119" x2="575.911" y2="62.423" xlink:href="#linear-gradient"/>
    <linearGradient id="linear-gradient-10" x1="618.059" y1="-.544" x2="619.017" y2="61.76" xlink:href="#linear-gradient"/>
  </defs>
  <g>
    <g>
      <path class="cls-11" d="m79.304,3.268c-3.06,3.06-3.06,7.957,0,11.105,3.148,3.06,8.044,3.06,11.104,0,3.148-3.149,3.148-8.046,0-11.105-3.06-3.148-7.957-3.148-11.104,0Z"/>
      <path class="cls-1" d="m51.838,38.354c-.456-.343-1.12-.343-1.575,0l-11.217,8.451c-.584.44-.584,1.247,0,1.686l25.115,18.924c.797.602,2.013.092,2.013-.842v-16.897c0-.325-.16-.633-.437-.842l-13.898-10.479h0Z"/>
      <path class="cls-11" d="m64.16,1.673l-29.715,22.391c-.456.343-1.12.343-1.575-.001L2.164,1.622c-.797-.6-2.012-.091-2.012.842l-.151,63.982c0,.935,1.215,1.443,2.012.842l14.417-10.861c.277-.21.438-.518.438-.842v-21.449c0-.934,1.215-1.443,2.012-.842l13.996,10.545c.456.343,1.12.343,1.575,0l31.284-23.576c.277-.209.437-.518.437-.842V2.518c0-.935-1.215-1.444-2.013-.843h0Z"/>
      <rect class="cls-11" x="77.766" y="20.077" width="14.271" height="47.571" rx="1.265" ry="1.265"/>
      <path class="cls-11" d="m150.044,20.077h-11.36c-.699,0-1.265.567-1.265,1.265v.472c0,1.085-1.271,1.661-2.091.951-3.075-2.662-6.975-4.019-11.8-4.019-6.659,0-12.273,2.379-16.744,7.136-4.471,4.662-6.66,10.372-6.66,17.03s2.188,12.369,6.66,17.126c4.471,4.662,10.085,7.04,16.744,7.04,4.825,0,8.726-1.356,11.8-4.019.82-.71,2.091-.133,2.091.951v1.262c0,6.563-3.996,10.179-10.751,10.179-4.594,0-8.004-1.658-10.229-4.975-.373-.556-1.105-.736-1.685-.402l-10.001,5.782c-.627.363-.817,1.175-.431,1.788,4.376,6.937,11.666,10.366,21.87,10.366,6.946,0,12.939-1.903,17.792-5.804,4.853-3.806,7.326-9.419,7.326-16.935V21.342c0-.698-.566-1.265-1.265-1.265h0Zm-15.86,30.826c-2.188,1.998-4.947,3.045-8.278,3.045s-6.089-1.047-8.277-3.045c-2.188-1.998-3.235-4.662-3.235-7.993s1.047-5.994,3.235-7.991c2.188-1.998,4.948-3.045,8.277-3.045s6.089,1.047,8.278,3.045,3.235,4.661,3.235,7.991-1.046,5.995-3.235,7.993Z"/>
    </g>
    <g>
      <path class="cls-4" d="m160.919,52.898l13.153-7.625c2.669,6.195,7.339,9.245,14.011,9.245,6.005,0,9.055-1.811,9.055-5.433,0-2.001-.953-3.526-2.955-4.575-1.906-1.143-5.528-2.478-10.866-3.908-5.623-1.525-9.436-3.241-13.534-6.291-3.908-3.145-6.1-7.911-6.1-14.011,0-6.195,2.192-11.056,6.577-14.774,4.479-3.717,9.722-5.528,15.822-5.528,10.961,0,19.539,5.242,24.4,15.059l-12.867,7.53c-2.383-5.052-5.719-7.72-11.533-7.72-4.575,0-7.148,2.287-7.148,5.051,0,1.62.762,3.05,2.287,4.289,1.62,1.239,4.861,2.573,9.722,4.003l6.195,2.001c1.43.477,3.336,1.335,5.528,2.573,2.287,1.144,4.003,2.383,5.147,3.717,2.383,2.574,4.575,6.958,4.575,12.391,0,6.386-2.287,11.342-6.862,15.059-4.575,3.622-10.58,5.433-17.919,5.433-13.63,0-22.875-6.29-26.687-16.489Z"/>
      <path class="cls-5" d="m286.065,24.495c3.336,3.527,4.956,8.292,4.956,14.297v29.261h-14.297v-28.022c0-4.861-2.383-7.815-6.862-7.815-4.67,0-7.435,3.336-7.435,8.959v26.878h-14.297v-28.022c0-4.861-2.383-7.815-6.862-7.815-4.671,0-7.435,3.336-7.435,8.959v26.878h-14.297V20.397h14.297v4.384c2.574-3.812,6.863-5.719,12.772-5.719,5.528,0,9.722,2.097,12.486,6.291,2.954-4.194,7.529-6.291,13.82-6.291,5.433,0,9.817,1.811,13.153,5.433Z"/>
      <path class="cls-3" d="m335.436,20.397h14.297v47.656h-14.297v-4.479c-3.336,3.907-8.102,5.814-14.202,5.814-6.29,0-11.628-2.383-16.107-7.243-4.48-4.861-6.672-10.866-6.672-17.919s2.192-12.963,6.672-17.823c4.479-4.861,9.817-7.339,16.107-7.339,6.1,0,10.866,1.906,14.202,5.814v-4.48Zm-11.342,35.456c3.336,0,6.1-1.049,8.197-3.145,2.097-2.097,3.145-4.957,3.145-8.483s-1.049-6.386-3.145-8.483c-2.097-2.097-4.861-3.145-8.197-3.145s-6.1,1.049-8.197,3.145c-2.097,2.097-3.146,4.956-3.146,8.483s1.049,6.386,3.146,8.483,4.861,3.145,8.197,3.145Z"/>
      <path class="cls-9" d="m374.515,28.88c1.811-6.1,7.816-9.436,14.297-9.436v16.203c-3.527-.572-6.767,0-9.817,1.811-2.955,1.716-4.48,4.766-4.48,9.055v21.541h-14.297V20.397h14.297v8.483Z"/>
      <path class="cls-10" d="m424.84,34.122h-9.817v16.87c0,3.813,2.859,4.48,9.817,4.099v12.962c-9.054.953-15.345.095-18.871-2.574-3.527-2.764-5.242-7.529-5.242-14.487v-16.87h-7.625v-13.725h7.625v-9.055l14.297-4.289v13.344h9.817v13.725Z"/>
      <path class="cls-8" d="m441.329,59.475c-6.577-6.671-9.817-14.964-9.817-24.781s3.241-18.109,9.817-24.686c6.577-6.672,14.869-10.008,24.876-10.008,11.914,0,22.779,5.909,28.594,15.441l-13.153,7.625c-2.955-5.242-8.673-8.197-15.441-8.197-5.909,0-10.675,1.811-14.202,5.433-3.526,3.622-5.242,8.387-5.242,14.392s1.716,10.77,5.242,14.392c3.527,3.622,8.293,5.433,14.202,5.433,6.767,0,12.677-3.145,15.441-8.197l13.153,7.625c-5.719,9.531-16.489,15.441-28.594,15.441-10.008,0-18.3-3.336-24.876-9.913Z"/>
      <path class="cls-6" d="m536.546,20.397h14.297v47.656h-14.297v-4.479c-3.336,3.907-8.102,5.814-14.202,5.814-6.29,0-11.628-2.383-16.107-7.243-4.48-4.861-6.672-10.866-6.672-17.919s2.192-12.963,6.672-17.823c4.479-4.861,9.817-7.339,16.107-7.339,6.1,0,10.866,1.906,14.202,5.814v-4.48Zm-11.342,35.456c3.336,0,6.1-1.049,8.197-3.145,2.097-2.097,3.145-4.957,3.145-8.483s-1.049-6.386-3.145-8.483c-2.097-2.097-4.861-3.145-8.197-3.145s-6.1,1.049-8.197,3.145c-2.097,2.097-3.146,4.956-3.146,8.483s1.049,6.386,3.146,8.483,4.861,3.145,8.197,3.145Z"/>
      <path class="cls-7" d="m575.624,28.88c1.811-6.1,7.816-9.436,14.297-9.436v16.203c-3.527-.572-6.767,0-9.817,1.811-2.955,1.716-4.48,4.766-4.48,9.055v21.541h-14.297V20.397h14.297v8.483Z"/>
      <path class="cls-2" d="m629.761,1.334h14.297v66.719h-14.297v-4.479c-3.336,3.907-8.102,5.814-14.202,5.814-6.29,0-11.628-2.383-16.107-7.243-4.48-4.861-6.672-10.866-6.672-17.919s2.192-12.963,6.672-17.823c4.479-4.861,9.817-7.339,16.107-7.339,6.1,0,10.866,1.906,14.202,5.814V1.334Zm-11.342,54.519c3.336,0,6.1-1.049,8.197-3.145,2.097-2.097,3.145-4.957,3.145-8.483s-1.049-6.386-3.145-8.483c-2.097-2.097-4.861-3.145-8.197-3.145s-6.1,1.049-8.197,3.145c-2.097,2.097-3.146,4.956-3.146,8.483s1.049,6.386,3.146,8.483,4.861,3.145,8.197,3.145Z"/>
    </g>
  </g>
  <g>
    <path class="cls-11" d="m-.049,119.922l3.521-2.024c1.188,3.741,3.961,5.589,8.229,5.589,4.225,0,6.513-1.892,6.513-4.752,0-1.452-.572-2.552-1.672-3.301-1.101-.748-2.992-1.496-5.589-2.332l-2.948-.968c-.66-.264-1.541-.66-2.553-1.144-1.012-.528-1.76-1.056-2.244-1.584-1.013-1.1-1.937-2.904-1.937-5.148,0-2.685.924-4.797,2.816-6.337,1.893-1.584,4.181-2.376,6.865-2.376,4.885,0,8.625,2.684,10.43,6.733l-3.433,1.98c-1.32-3.168-3.652-4.753-6.997-4.753s-5.589,1.76-5.589,4.577c0,1.364.484,2.376,1.452,3.081s2.641,1.452,5.017,2.2l1.805.572c.352.132.88.308,1.628.616,1.54.572,1.893.792,3.08,1.452,1.232.66,1.629,1.144,2.377,2.024,1.1,1.1,1.54,2.685,1.54,4.621,0,2.685-.968,4.841-2.948,6.469-1.98,1.584-4.533,2.376-7.701,2.376-5.765,0-10.033-2.86-11.662-7.569Z"/>
    <path class="cls-11" d="m68.112,113.233v13.686h-3.829v-13.554c0-3.389-1.892-5.369-4.841-5.369-3.3,0-5.412,2.156-5.412,6.689v12.234h-3.829v-13.554c0-3.389-1.804-5.369-4.664-5.369-3.213,0-5.633,2.245-5.633,6.689v12.234h-3.829v-22.003h3.829v2.948c1.496-2.333,3.696-3.521,6.557-3.521,2.948,0,5.104,1.232,6.469,3.74,1.54-2.508,3.829-3.74,6.909-3.74,4.929,0,8.273,3.433,8.273,8.889Z"/>
    <path class="cls-11" d="m101.022,104.916h3.828v22.003h-3.828v-3.785c-1.893,2.905-4.665,4.357-8.317,4.357-3.08,0-5.721-1.101-7.877-3.345s-3.257-5.017-3.257-8.229,1.101-5.941,3.257-8.185c2.156-2.245,4.797-3.389,7.877-3.389,3.652,0,6.425,1.452,8.317,4.356v-3.784Zm-2.244,16.634c1.496-1.541,2.244-3.389,2.244-5.633s-.748-4.093-2.244-5.589c-1.496-1.541-3.345-2.289-5.589-2.289-2.2,0-4.049.748-5.545,2.289-1.496,1.496-2.244,3.344-2.244,5.589s.748,4.092,2.244,5.633c1.496,1.496,3.345,2.244,5.545,2.244,2.244,0,4.093-.748,5.589-2.244Z"/>
    <path class="cls-11" d="m123.856,108.613c1.275-2.729,3.564-4.093,6.864-4.093v4.005c-1.892-.088-3.477.396-4.841,1.496-1.363,1.1-2.023,2.816-2.023,5.237v11.662h-3.829v-22.003h3.829v3.696Z"/>
    <path class="cls-11" d="m156.328,108.613h-5.853v11.926c0,3.389,1.937,3.125,5.853,2.948v3.433c-6.688.88-9.682-.924-9.682-6.381v-11.926h-4.356v-3.696h4.356v-5.017l3.829-1.144v6.161h5.853v3.696Z"/>
    <path class="cls-11" d="m197.776,126.919l-8.845-30.805h4.312l7.041,25.348,7.48-25.348h4.137l7.481,25.348,7.041-25.348h4.312l-8.846,30.805h-4.752l-7.306-24.6-7.305,24.6h-4.753Z"/>
    <path class="cls-11" d="m259.686,104.916h3.828v22.003h-3.828v-3.785c-1.893,2.905-4.665,4.357-8.317,4.357-3.08,0-5.721-1.101-7.877-3.345s-3.257-5.017-3.257-8.229,1.101-5.941,3.257-8.185c2.156-2.245,4.797-3.389,7.877-3.389,3.652,0,6.425,1.452,8.317,4.356v-3.784Zm-2.244,16.634c1.496-1.541,2.244-3.389,2.244-5.633s-.748-4.093-2.244-5.589c-1.496-1.541-3.345-2.289-5.589-2.289-2.2,0-4.049.748-5.545,2.289-1.496,1.496-2.244,3.344-2.244,5.589s.748,4.092,2.244,5.633c1.496,1.496,3.345,2.244,5.545,2.244,2.244,0,4.093-.748,5.589-2.244Z"/>
    <path class="cls-11" d="m294.049,104.916h4.093l-8.978,23.367c-1.893,4.973-5.369,7.745-9.77,7.437v-3.564c2.685.22,4.665-1.276,5.941-4.489l.396-.836-9.593-21.915h4.092l7.481,17.25,6.337-17.25Z"/>
    <path class="cls-11" d="m343.065,108.613h-5.853v11.926c0,3.389,1.937,3.125,5.853,2.948v3.433c-6.688.88-9.682-.924-9.682-6.381v-11.926h-4.356v-3.696h4.356v-5.017l3.829-1.144v6.161h5.853v3.696Z"/>
    <path class="cls-11" d="m366.208,127.491c-3.213,0-5.985-1.101-8.229-3.345s-3.345-4.973-3.345-8.229,1.101-5.985,3.345-8.229c2.244-2.244,5.017-3.344,8.229-3.344s5.984,1.1,8.229,3.344c2.244,2.245,3.388,4.973,3.388,8.229s-1.144,5.985-3.388,8.229c-2.245,2.244-5.018,3.345-8.229,3.345Zm5.545-5.985c1.496-1.497,2.244-3.345,2.244-5.589s-.748-4.093-2.244-5.589-3.345-2.245-5.545-2.245c-2.156,0-4.005.749-5.501,2.245s-2.244,3.344-2.244,5.589.748,4.092,2.244,5.589c1.496,1.496,3.345,2.244,5.501,2.244,2.2,0,4.049-.748,5.545-2.244Z"/>
    <path class="cls-11" d="m415.4,122.87c-3.036-3.08-4.533-6.865-4.533-11.354s1.497-8.273,4.533-11.354,6.909-4.621,11.573-4.621c5.633,0,10.649,2.904,13.29,7.481l-3.564,2.068c-1.76-3.389-5.501-5.589-9.726-5.589-3.564,0-6.469,1.144-8.713,3.433-2.244,2.288-3.345,5.148-3.345,8.581,0,3.389,1.101,6.249,3.345,8.537,2.244,2.289,5.148,3.433,8.713,3.433,4.225,0,7.966-2.2,9.726-5.545l3.564,2.024c-1.276,2.289-3.124,4.137-5.501,5.501-2.376,1.364-4.973,2.024-7.789,2.024-4.664,0-8.537-1.541-11.573-4.621Z"/>
    <path class="cls-11" d="m464.109,127.491c-3.213,0-5.985-1.101-8.229-3.345s-3.345-4.973-3.345-8.229,1.101-5.985,3.345-8.229c2.244-2.244,5.017-3.344,8.229-3.344s5.984,1.1,8.229,3.344c2.244,2.245,3.388,4.973,3.388,8.229s-1.144,5.985-3.388,8.229c-2.245,2.244-5.018,3.345-8.229,3.345Zm5.545-5.985c1.496-1.497,2.244-3.345,2.244-5.589s-.748-4.093-2.244-5.589-3.345-2.245-5.545-2.245c-2.156,0-4.005.749-5.501,2.245s-2.244,3.344-2.244,5.589.748,4.092,2.244,5.589c1.496,1.496,3.345,2.244,5.501,2.244,2.2,0,4.049-.748,5.545-2.244Z"/>
    <path class="cls-11" d="m509.122,113.409v13.51h-3.829v-13.29c0-3.564-2.068-5.633-5.456-5.633-3.829,0-6.381,2.333-6.381,7.261v11.662h-3.829v-22.003h3.829v3.168c1.54-2.508,3.916-3.74,7.129-3.74,5.148,0,8.537,3.477,8.537,9.065Z"/>
    <path class="cls-11" d="m543.31,113.409v13.51h-3.829v-13.29c0-3.564-2.068-5.633-5.456-5.633-3.829,0-6.381,2.333-6.381,7.261v11.662h-3.829v-22.003h3.829v3.168c1.54-2.508,3.916-3.74,7.129-3.74,5.148,0,8.537,3.477,8.537,9.065Z"/>
    <path class="cls-11" d="m560.688,117.678c.748,3.917,3.784,6.205,7.965,6.205,2.904,0,5.017-1.056,6.337-3.212l3.257,1.849c-2.156,3.3-5.369,4.973-9.682,4.973-3.477,0-6.337-1.101-8.537-3.257-2.156-2.2-3.257-4.973-3.257-8.317,0-3.301,1.057-6.073,3.213-8.273,2.156-2.2,4.929-3.3,8.317-3.3,3.212,0,5.853,1.144,7.877,3.433,2.068,2.244,3.08,4.973,3.08,8.185,0,.572-.044,1.144-.132,1.716h-18.438Zm0-3.345h14.698c-.66-4.181-3.564-6.381-7.085-6.381-4.093,0-6.953,2.508-7.613,6.381Z"/>
    <path class="cls-11" d="m595.051,124.191c-2.2-2.244-3.301-4.973-3.301-8.273s1.101-6.029,3.301-8.229c2.2-2.244,4.973-3.344,8.273-3.344,4.356,0,8.009,2.244,9.726,5.765l-3.213,1.849c-1.101-2.333-3.564-3.873-6.513-3.873-2.2,0-4.049.749-5.545,2.245-1.452,1.496-2.2,3.344-2.2,5.589,0,2.2.748,4.048,2.2,5.544,1.496,1.497,3.345,2.245,5.545,2.245,2.948,0,5.412-1.496,6.645-3.829l3.257,1.892c-1.893,3.477-5.633,5.721-9.901,5.721-3.301,0-6.073-1.101-8.273-3.301Z"/>
    <path class="cls-11" d="m638.349,108.613h-5.853v11.926c0,3.389,1.937,3.125,5.853,2.948v3.433c-6.688.88-9.682-.924-9.682-6.381v-11.926h-4.356v-3.696h4.356v-5.017l3.829-1.144v6.161h5.853v3.696Z"/>
  </g>
</svg>
