<?xml version="1.0" encoding="UTF-8"?>
<svg id="Layer_1" data-name="Layer 1" xmlns="http://www.w3.org/2000/svg" xmlns:xlink="http://www.w3.org/1999/xlink" viewBox="0 0 250 250">
  <defs>
    <style>
      .cls-1 {
        fill: url(#linear-gradient);
      }
      .cls-1, .cls-2, .cls-3 {
        stroke-width: 0px;
      }
      .cls-2 {
        fill: #161616;
      }
      .cls-3 {
        fill: #fff;
      }
    </style>
    <linearGradient id="linear-gradient" x1="79.108" y1="135.439" x2="113.254" y2="135.439" gradientUnits="userSpaceOnUse">
      <stop offset="0" stop-color="#d6aa7f"/>
      <stop offset="1" stop-color="#b8864e"/>
    </linearGradient>
  </defs>
  <rect class="cls-2" x="0" y="0" width="250" height="250" rx="55.096" ry="55.096"/>
  <g>
    <path class="cls-3" d="m129.521,73.978c-3.79,3.79-3.79,9.856,0,13.756,3.899,3.79,9.965,3.79,13.755,0,3.899-3.9,3.899-9.966,0-13.756-3.79-3.899-9.856-3.899-13.755,0Z"/>
    <path class="cls-1" d="m95.497,117.438c-.564-.425-1.387-.425-1.951,0l-13.895,10.468c-.723.545-.723,1.544,0,2.089l31.11,23.442c.987.745,2.493.114,2.493-1.043v-20.931c0-.402-.198-.784-.542-1.043l-17.215-12.981h0Z"/>
    <path class="cls-3" d="m110.761,72.001l-36.809,27.736c-.564.425-1.387.425-1.951-.002l-38.035-27.798c-.987-.744-2.493-.113-2.493,1.043l-.188,79.255c0,1.158,1.506,1.788,2.493,1.043l17.859-13.453c.343-.26.542-.642.542-1.043v-26.569c0-1.157,1.506-1.788,2.493-1.043l17.337,13.062c.564.425,1.387.425,1.951,0l38.752-29.205c.343-.259.542-.642.542-1.043v-20.937c0-1.158-1.506-1.789-2.493-1.045v-.002Z"/>
    <rect class="cls-3" x="127.615" y="94.799" width="17.677" height="58.927" rx="1.567" ry="1.567"/>
    <path class="cls-3" d="m217.148,94.799h-14.072c-.866,0-1.567.702-1.567,1.567v.584c0,1.344-1.574,2.058-2.59,1.178-3.809-3.298-8.64-4.979-14.617-4.979-8.249,0-15.203,2.947-20.741,8.839-5.539,5.775-8.25,12.847-8.25,21.096s2.711,15.322,8.25,21.214c5.539,5.775,12.493,8.721,20.741,8.721,5.977,0,10.808-1.68,14.617-4.979,1.015-.88,2.59-.164,2.59,1.178v1.563c0,8.13-4.95,12.609-13.317,12.609-5.691,0-9.915-2.054-12.671-6.162-.461-.556-1.105-.736-1.685-.498l-10.001,5.782c-.627.363-.817,1.175-.431,1.788,4.376,6.937,11.666,10.366,21.87,10.366,6.946,0,12.939-1.903,17.792-5.804,4.853-3.806,7.326-9.419,7.326-16.935V21.342c0-.698-.701-1.567-1.567-1.567h0Zm-19.646,38.185c-2.711,2.475-6.128,3.772-10.254,3.772s-7.542-1.297-10.253-3.772c-2.71-2.475-4.007-5.775-4.007-9.901s1.298-7.424,4.007-9.899c2.711-2.475,6.129-3.772,10.253-3.772s7.543,1.298,10.254,3.772c2.711,2.475,4.007,5.774,4.007,9.899s-1.296,7.426-4.007,9.901Z"/>
  </g>
</svg>