<?xml version="1.0" encoding="UTF-8"?>
<svg id="Layer_1" data-name="Layer 1" xmlns="http://www.w3.org/2000/svg" xmlns:xlink="http://www.w3.org/1999/xlink" viewBox="0 0 250 250">
  <defs>
    <style>
      .cls-1 { fill: url(#linear-gradient); }
      .cls-1, .cls-2, .cls-3 { stroke-width: 0px; }
      .cls-2 { fill: #161616; }
      .cls-3 { fill: #fff; }
    </style>
    <linearGradient id="linear-gradient" x1="87.952" y1="133.427" x2="115.518" y2="133.427" gradientUnits="userSpaceOnUse">
      <stop offset="0" stop-color="#2d76f9"/>
      <stop offset=".998" stop-color="#1954e7"/>
    </linearGradient>
  </defs>
  <rect class="cls-2" x="0" width="250" height="250" rx="20.93" ry="20.93"/>
  <g>
    <path class="cls-3" d="m128.649,83.81c-3.06,3.06-3.06,7.957,0,11.105,3.148,3.06,8.044,3.06,11.104,0,3.148-3.149,3.148-8.046,0-11.105-3.06-3.148-7.957-3.148-11.104,0Z"/>
    <path class="cls-1" d="m101.183,118.895c-.456-.343-1.12-.343-1.575,0l-11.217,8.451c-.584.44-.584,1.247,0,1.686l25.115,18.924c.797.602,2.013.092,2.013-.842v-16.897c0-.325-.16-.633-.437-.842l-13.898-10.479h0Z"/>
    <path class="cls-3" d="m113.505,82.215l-29.715,22.391c-.456.343-1.12.343-1.575-.001l-30.705-22.441c-.797-.6-2.012-.091-2.012.842l-.151,63.982c0,.935,1.215,1.443,2.012.842l14.417-10.861c.277-.21.438-.518.438-.842v-21.449c0-.934,1.215-1.443,2.012-.842l13.996,10.545c.456.343,1.12.343,1.575,0l31.284-23.576c.277-.209.437-.518.437-.842v-16.902c0-.935-1.215-1.444-2.013-.843h0Z"/>
    <rect class="cls-3" x="127.111" y="100.619" width="14.271" height="47.571" rx="1.265" ry="1.265"/>
    <path class="cls-3" d="m199.39,100.619h-11.36c-.699,0-1.265.567-1.265,1.265v.472c0,1.085-1.271,1.661-2.091.951-3.075-2.662-6.975-4.019-11.8-4.019-6.659,0-12.273,2.379-16.744,7.136-4.471,4.662-6.66,10.372-6.66,17.03s2.188,12.369,6.66,17.126c4.471,4.662,10.085,7.04,16.744,7.04,4.825,0,8.726-1.356,11.8-4.019.82-.71,2.091-.133,2.091.951v1.262c0,6.563-3.996,10.179-10.751,10.179-4.594,0-8.004-1.658-10.229-4.975-.373-.556-1.105-.736-1.685-.402l-10.001,5.782c-.627.363-.817,1.175-.431,1.788,4.376,6.937,11.666,10.366,21.87,10.366,6.946,0,12.939-1.903,17.792-5.804,4.853-3.806,7.326-9.419,7.326-16.935v-43.928c0-.698-.566-1.265-1.265-1.265h0Zm-15.86,30.826c-2.188,1.998-4.947,3.045-8.278,3.045s-6.089-1.047-8.277-3.045c-2.188-1.998-3.235-4.662-3.235-7.993s1.047-5.994,3.235-7.991c2.188-1.998,4.948-3.045,8.277-3.045s6.089,1.047,8.278,3.045,3.235,4.661,3.235,7.991-1.046,5.995-3.235,7.993Z"/>
  </g>
</svg>
