<?xml version="1.0" encoding="utf-8"?>
<svg xmlns="http://www.w3.org/2000/svg" viewBox="0 0 250 250">
 <defs><linearGradient id="gold" x1="134.97" y1="158.18" x2="184.77" y2="158.18" gradientUnits="userSpaceOnUse"><stop stop-color="#D6AA7F"/><stop offset="1" stop-color="#B8864E"/></linearGradient></defs>
 <path fill="#161616" d="M201.1 250H48.9C21.9 250 0 228.1 0 201.1V48.9C0 21.9 21.9 0 48.9 0h152.3c27 0 48.9 21.9 48.9 48.9v152.3c-.1 27-22 48.9-48.9 48.9z"/>
 <path fill="url(#gold)" d="M158.9 131.9c-.8-.6-2-.6-2.8 0l-20.3 15.3c-1.1.8-1.1 2.3 0 3l45.4 34.2c1.4 1.1 3.6.2 3.6-1.5v-30.5c0-.6-.3-1.1-.8-1.5l-25.1-19z"/>
 <path fill="#fff" d="m181.1 65.7-53.7 40.4c-.8.6-2 .6-2.8 0L69.1 65.6c-1.4-1.1-3.6-.2-3.6 1.5l-.3 115.6c0 1.7 2.2 2.6 3.6 1.5l26-19.6c.5-.4.8-.9.8-1.5v-38.7c0-1.7 2.2-2.6 3.6-1.5l25.3 19c.8.6 2 .6 2.8 0L184 99.2c.5-.4.8-.9.8-1.5V67.2c0-1.7-2.2-2.6-3.7-1.5z"/>
</svg>
